<?xml version="1.0" encoding="utf-8"?>
<!-- Generator: Adobe Illustrator 24.0.0, SVG Export Plug-In . SVG Version: 6.00 Build 0)  -->
<svg version="1.0" id="图层_1" xmlns="http://www.w3.org/2000/svg" xmlns:xlink="http://www.w3.org/1999/xlink" x="0px" y="0px"
	 viewBox="0 0 1133.86 1133.86" style="enable-background:new 0 0 1133.86 1133.86;" xml:space="preserve">
<style type="text/css">
	.st0{fill:#F5C620;}
	.st1{fill:#F3961A;}
	.st2{fill:#358CCC;}
</style>
<g>
	<path class="st0" d="M989.68,307.22c2.76,2.6,5.52,5.19,8.11,7.95c19.14,19.3,35.52,40.23,49.15,63.1
		c22.22,36.98,34.22,74.13,36.17,111.27l-1.78,44.93c-0.49,3.57-0.97,7.14-1.62,10.54c-1.78,9.57-4.22,19.14-7.3,28.71
		c8.27,6.65,15.9,13.63,22.87,20.76c29.03-72.18,23.2-143.87-17.84-215.08c-15.73-27.25-35.04-52.07-58.23-74.29
		c-55.63-53.85-133-93.75-231.95-119.87c-140.14-36.66-282.72-34.71-427.56,5.68c-69.91,19.46-130.57,45.25-181.99,77.37l0.97,1.46
		c48.5-29.84,105.92-53.85,172.09-72.02c139.33-38.44,276.88-40.06,412.64-4.87c5.35,1.46,10.54,2.76,15.57,4.22
		C867.7,221.9,937.93,258.72,989.68,307.22L989.68,307.22z"/>
	<path class="st0" d="M1023.25,505.27c0.16,11.03-0.65,22.06-2.43,33.09c9.25,5.35,18.17,11.03,26.6,16.71
		c13.14-53.69,4.38-106.89-26.28-159.93c-13.95-24.33-31.3-46.39-51.9-66.34c-24.82-23.84-54.34-44.77-88.56-62.45
		c24.33,13.62,45.9,29.68,64.56,48.01c18.98,18.49,34.87,39.41,47.69,62.93C1015.79,418.65,1025.85,461.31,1023.25,505.27
		L1023.25,505.27z"/>
	<path class="st0" d="M1076.29,685.15l1.78,0.49l2.76-9.73c0.32-0.97,0.65-1.95,0.81-2.76c4.7-19.79-7.3-43.47-36.33-70.88
		c-39.74-37.79-94.56-67.31-164.47-88.56c-59.85-18.17-110.95-23.84-152.96-16.87c-32.28,4.7-51.74,15.9-58.55,33.9l-4.22,15.73
		l1.3,0.32c8.76-14.11,27.25-23.2,55.31-27.25c42.01-6.97,92.94-1.3,152.79,16.71c69.91,21.25,124.89,50.77,164.63,88.56
		C1062.99,647.68,1075.48,667.79,1076.29,685.15L1076.29,685.15z"/>
	<path class="st1" d="M1061.69,717.75c5.84-5.35,9.89-11.19,12.33-17.36c0.81-2.27,1.46-4.7,1.95-7.14c0.49-2.6,0.49-5.35,0.32-8.11
		c-0.81-17.36-13.3-37.47-37.14-60.34c-39.74-37.79-94.72-67.31-164.63-88.56c-59.85-18-110.78-23.68-152.79-16.71
		c-28.06,4.06-46.55,13.14-55.31,27.25c-1.14,1.62-1.95,3.41-2.76,5.35l-2.92,10.87c-2.92,18,6.81,38.6,29.2,61.96
		c23.84,24.82,57.58,47.36,100.89,67.8c48.66,22.87,97.97,37.47,147.93,43.79C998.27,743.87,1039.15,737.54,1061.69,717.75
		L1061.69,717.75z M919.28,602.91c4.87,9.57,7.14,18.65,6.97,27.57c0,2.43-0.16,4.87-0.49,7.3c-0.16,0.81-0.49,1.78-0.65,2.6
		c-0.32,1.3-0.65,2.59-1.14,4.06c-1.78,5.35-4.38,10.38-8.11,15.41c-11.68,15.73-29.68,25.47-54.18,28.87
		c-5.68,0.81-11.35,1.14-17.03,1.14c-15.9-0.16-31.3-3.73-46.23-10.71c-15.9-7.14-28.22-16.38-37.14-27.57
		c-2.43-2.92-4.54-6-6.33-9.25c-7.46-13.46-9.89-26.44-7.3-38.93c0.49-2.43,1.3-4.7,2.27-7.14c0.16-0.49,0.32-0.97,0.49-1.46
		c0.81-2.11,1.62-3.89,2.6-5.68c6.97-14.27,19.63-24.49,37.79-30.82c22.55-8.6,46.55-8.6,72.02,0
		C889.6,566.9,908.41,581.66,919.28,602.91L919.28,602.91z"/>
	<path class="st0" d="M753.02,594.64l-2.59,0.16c-0.16,0.49-0.32,0.97-0.49,1.46c-0.97,2.43-1.78,4.7-2.27,7.14
		c-2.6,12.49-0.16,25.47,7.3,38.93c1.78,3.24,3.89,6.33,6.33,9.25c8.92,11.19,21.25,20.44,37.14,27.57
		c14.92,6.97,30.33,10.54,46.23,10.71c5.68,0,11.35-0.32,17.03-1.14c24.49-3.41,42.5-13.14,54.17-28.87
		c3.73-5.03,6.33-10.06,8.11-15.41c0.49-1.46,0.81-2.76,1.14-4.06c0.16-0.81,0.49-1.78,0.65-2.6l-3.57-0.49
		c-11.84,15.73-29.85,25.3-54.17,28.71c-22.22,3.08-43.31,0-63.42-9.41c-19.95-9.08-34.39-21.41-43.31-36.82
		C756.43,611.18,753.67,602.91,753.02,594.64L753.02,594.64z"/>
	<path class="st0" d="M141.69,283.7c-7.62,0.49-15.08,1.3-22.06,2.43c-25.47,3.89-42.01,11.84-49.47,23.84L64,329.12l1.62,0.49
		c0.16-0.16,0.16-0.16,0.16-0.16c8.27-10.38,24.01-17.19,47.2-20.6c6.97-1.3,14.44-2.11,22.22-2.6c31.3-1.78,67.64,2.76,109,13.62
		c7.62,1.95,15.57,4.22,23.68,6.65c8.92,2.59,18,5.51,27.09,8.92c3.08,1.14,6.33,2.11,9.41,3.24
		c49.31,17.36,90.51,39.74,123.76,66.83c28.55,22.55,43.47,42.82,44.77,61.15l1.62,0.49l4.7-16.54
		c2.27-19.95-12.49-42.5-44.44-67.64c-33.25-27.09-74.45-49.31-123.76-66.66c-12.16-4.7-24.49-8.92-36.66-12.33
		C223.28,288.24,179,281.59,141.69,283.7L141.69,283.7z"/>
	<path class="st1" d="M244.2,319.87c-41.36-10.87-77.69-15.41-109-13.63c-7.79,0.49-15.25,1.3-22.22,2.6
		c-23.19,3.41-38.93,10.22-47.2,20.6c0,0,0,0-0.16,0.16c-1.62,2.11-2.92,4.22-3.89,6.65c-1.14,2.43-1.95,5.03-2.43,7.79
		c0,0.16,0,0.32,0,0.49c-0.32,2.11-0.32,4.38-0.16,6.97c0.81,20.28,17.68,43.31,50.61,69.1c32.28,23.84,72.83,45.25,121.65,63.91
		c7.3,2.11,14.76,4.54,22.55,7.3c42.98,13.14,83.53,20.44,121.98,22.06c5.35,0.16,10.54,0.32,15.73,0.16
		c39.9-0.97,65.37-10.06,76.4-27.41c1.14-2.27,2.27-4.54,3.08-6.65c0.49-1.46,0.81-2.92,1.14-4.38c0.16-0.49,0.16-1.14,0.32-1.78
		c0.32-2.27,0.49-4.7,0.32-7.14c-1.3-18.33-16.22-38.6-44.77-61.15c-33.25-27.09-74.45-49.47-123.76-66.83
		c-3.08-1.14-6.33-2.11-9.41-3.24c-9.08-3.41-18.17-6.33-27.09-8.92C259.77,324.09,251.82,321.82,244.2,319.87L244.2,319.87z
		 M182.73,435.2c-14.11-16.71-20.44-32.93-18.65-48.34c0.81-7.3,2.92-13.62,6.49-19.14c5.03-8.27,13.14-14.6,24.33-18.98
		c19.3-8.92,42.01-9.25,68.12-0.97c25.95,7.3,46.55,21.09,61.8,41.2c10.22,13.46,15.08,26.6,14.76,39.42
		c-0.16,2.43-0.32,4.7-0.81,6.97c-0.49,2.76-1.3,5.51-2.27,8.27c-0.32,0.81-0.65,1.78-1.14,2.76
		c-6.33,14.11-19.14,23.52-38.28,28.55c-3.41,0.81-6.97,1.3-10.54,1.62c-16.54,1.46-33.74-0.65-51.58-6.65
		c-19.3-7.14-35.2-17.03-47.69-29.68C185.81,438.6,184.19,436.98,182.73,435.2L182.73,435.2z"/>
	<path class="st0" d="M164.07,386.86c-1.78,15.41,4.54,31.63,18.65,48.34c1.46,1.78,3.08,3.41,4.54,5.03
		c12.49,12.65,28.39,22.55,47.69,29.68c17.84,6,35.04,8.11,51.58,6.65c3.57-0.32,7.14-0.81,10.54-1.62
		c19.14-5.03,31.95-14.44,38.28-28.55l3.41-11.03c0.49-2.27,0.65-4.54,0.81-6.97c-6.97,11.52-18.98,19.63-35.85,24.01
		c-19.63,3.73-40.39,2.11-62.12-5.03c-21.73-8.11-39.09-19.63-52.23-34.71c-13.14-15.57-19.3-30.49-18.82-44.93
		C166.99,373.24,164.88,379.56,164.07,386.86L164.07,386.86z"/>
	<path class="st0" d="M52.48,431.79c0.49-2.76,0.97-5.35,1.62-8.11c1.3-6,2.92-12,4.87-18c-5.03-6.33-9.89-12.81-14.27-19.46
		c-22.55,54.01-21.57,109.65,2.92,167.23c9.41,22.22,21.57,42.66,36.33,61.64c35.68,45.58,86.94,81.59,153.6,108.03l1.3-2.6
		c-8.27-4.06-18.17-8.92-29.84-14.92c-35.85-18.17-62.61-38.28-80.61-60.5c-17.68-22.22-27.41-34.39-29.03-36.82
		c-12.33-16.22-22.71-33.58-30.98-52.23c-13.46-30.33-19.95-60.18-19.46-89.37L52.48,431.79L52.48,431.79z"/>
	<path class="st0" d="M92.7,440.06c-6.33-5.35-12.16-10.87-17.68-16.54c-9.57,39.25-5.68,79.64,11.84,121
		c8.43,19.79,19.3,38.12,32.6,55.15c15.73,20.11,35.04,38.12,57.91,54.18c-16.06-12.17-30.17-26.11-42.01-41.52
		c-12.17-15.73-22.06-33.09-29.84-52.07c-13.63-33.74-18.49-67.8-14.6-102.02C91.08,452.07,91.73,446.06,92.7,440.06L92.7,440.06z"
		/>
	<path class="st0" d="M138.12,544.84c-9.08-26.11-12-52.07-8.92-77.69c-6-4.06-11.84-7.95-17.52-12
		c-1.95,26.44,2.92,53.36,14.76,80.78c7.3,17.36,16.87,33.58,28.55,48.34l1.46-0.81C148.99,571.45,142.83,558.63,138.12,544.84
		L138.12,544.84z"/>
	<path class="st0" d="M919.28,352.31l-1.78,1.46c11.84,14.27,21.74,29.85,29.68,46.71c17.36,36.17,23.36,72.99,18.33,110.13
		c0.81,0.49,1.78,0.81,2.6,1.3c8.43,3.73,16.71,7.46,24.65,11.52c3.08-37.79-6.16-75.42-27.74-112.73
		C952.69,389.29,937.45,369.83,919.28,352.31L919.28,352.31z"/>
	<path class="st1" d="M523.19,509.32l0.81,0.16l-25.79,315.16c11.84-0.81,23.68-1.46,35.85-1.78l20.28-314.99L527.4,485.8h-0.16
		h0.16l43.79-29.68l-72.99,33.09L523.19,509.32L523.19,509.32z"/>
	<path class="st0" d="M527.4,485.8L527.4,485.8l26.93,22.06l-20.27,314.99c5.35-0.16,10.71-0.16,16.06-0.16
		c25.95-0.16,51.26,1.14,76.07,3.73l-0.97-340.14l-54.01-30.17L527.4,485.8L527.4,485.8z"/>
	<path class="st2" d="M626.18,826.43c-24.82-2.6-50.12-3.89-76.07-3.73c-5.35,0-10.7,0-16.06,0.16
		c-12.17,0.32-24.01,0.97-35.85,1.78c-122.46,9.25-230.81,49.96-324.89,122.14l754.56-2.43
		C839.48,877.36,738.91,838.1,626.18,826.43L626.18,826.43z"/>
</g>
</svg>
